# xmcd
#
# Track frame offsets: 
#        182
#        12675
#        25625
#        38165
#        50477
#        63650
#        76030
#        88107
#        100960
#        113257
#        125787
#        135975
#        149335
#        162555
#        175395
#        187645
#        198882
#        211110
#        222590
#        235817
#        246825
#        259667
#        271807
#
# Disc length: 3794 seconds
#
# Revision: 0
# Processed by: cddbd v1.5.1PL0 Copyright (c) Steve Scherf et al.
# Submitted via: ExactAudioCopy v0.95a5
#
DISCID=3f0ed017
DTITLE=Memphis Minnie - Complete Recordings 1935-1941 Vol. 4
DYEAR=1900
DGENRE=
TTITLE0=I Hate to See the Sun Go Down
TTITLE1=As Long as I Can See You Smile
TTITLE2=Has Anyone Seen My Man?
TTITLE3=Good Biscuits
TTITLE4=I've Been Treated Wrong
TTITLE5=Keep On Walking
TTITLE6=Keep On Eating
TTITLE7=I'd Rather See Him Dead
TTITLE8=Diggin' My Potatoes
TTITLE9=A.B.C. Blues
TTITLE10=Bone Yard Blues
TTITLE11=My Black Buffalo
TTITLE12=Tuff Luck Blues
TTITLE13=Key to the World
TTITLE14=Black Widow Stinger
TTITLE15=Good Soppin'
TTITLE16=Poor and Wandering Woman Blues
TTITLE17=Bad Outside Friends
TTITLE18=Worried Baby Blues
TTITLE19=Call the Fire Wagon
TTITLE20=Low Down Man Blues
TTITLE21=Don't Lead My Baby Wrong
TTITLE22=Keep Your Big Mouth Closed
EXTD=
EXTT0=
EXTT1=
EXTT2=
EXTT3=
EXTT4=
EXTT5=
EXTT6=
EXTT7=
EXTT8=
EXTT9=
EXTT10=
EXTT11=
EXTT12=
EXTT13=
EXTT14=
EXTT15=
EXTT16=
EXTT17=
EXTT18=
EXTT19=
EXTT20=
EXTT21=
EXTT22=
PLAYORDER=
